HIERARCHY
ROOT Hips
{
  OFFSET 5.84602e-005 68.8428 3.50346
  CHANNELS 6 Xposition Yposition Zposition Zrotation Xrotation Yrotation
  JOINT Spine
  {
    OFFSET 0 8.597 -4.6522
    CHANNELS 3 Zrotation Xrotation Yrotation
    JOINT Spine1
    {
      OFFSET 0 7.8454 0.4098
      CHANNELS 3 Zrotation Xrotation Yrotation
      JOINT Spine2
      {
        OFFSET 0 9.7078 -2.1609
        CHANNELS 3 Zrotation Xrotation Yrotation
        JOINT Neck
        {
          OFFSET 0 21.8761 -0.4549
          CHANNELS 3 Zrotation Xrotation Yrotation
          JOINT Head
          {
            OFFSET 0 12.3537 3.3602
            CHANNELS 3 Zrotation Xrotation Yrotation
            End Site
            {
              OFFSET 0.0001 18.9506 0.5657
            }
          }
        }
        JOINT LeftShoulder
        {
          OFFSET 2.2086 21.1115 7.2329
          CHANNELS 3 Zrotation Xrotation Yrotation
          JOINT LeftArm
          {
            OFFSET 13.1193 3.0282 -4.8998
            CHANNELS 3 Zrotation Xrotation Yrotation
            JOINT LeftForeArm
            {
              OFFSET 27.4081 -0.0973053 -0.2375
              CHANNELS 3 Zrotation Xrotation Yrotation
              JOINT LeftHand
              {
                OFFSET 22.8641 0.0662994 -0.1369
                CHANNELS 3 Zrotation Xrotation Yrotation
                JOINT LeftHandIndex1
                {
                  OFFSET 8.8614 0.775009 2.4612
                  CHANNELS 3 Zrotation Xrotation Yrotation
                  JOINT LeftHandIndex2
                  {
                    OFFSET 3.3146 -0.808304 0.5841
                    CHANNELS 3 Zrotation Xrotation Yrotation
                    JOINT LeftHandIndex3
                    {
                      OFFSET 2.2628 -0.552002 0.3989
                      CHANNELS 3 Zrotation Xrotation Yrotation
                      End Site
                      {
                        OFFSET 1.6102 -0.4807 0.2612
                      }
                    }
                  }
                }
                JOINT LeftHandMiddle1
                {
                  OFFSET 8.9937 0.895004 0.2143
                  CHANNELS 3 Zrotation Xrotation Yrotation
                  JOINT LeftHandMiddle2
                  {
                    OFFSET 4.0984 0.0113983 -0.0242
                    CHANNELS 3 Zrotation Xrotation Yrotation
                    JOINT LeftHandMiddle3
                    {
                      OFFSET 2.2716 0.00689697 -0.0138001
                      CHANNELS 3 Zrotation Xrotation Yrotation
                      End Site
                      {
                        OFFSET 2.0404 -0.1441 0.0027
                      }
                    }
                  }
                }
                JOINT LeftHandRing1
                {
                  OFFSET 8.5234 0.597198 -2.0164
                  CHANNELS 3 Zrotation Xrotation Yrotation
                  JOINT LeftHandRing2
                  {
                    OFFSET 3.7188 -0.188293 -0.2328
                    CHANNELS 3 Zrotation Xrotation Yrotation
                    JOINT LeftHandRing3
                    {
                      OFFSET 2.1191 -0.106598 -0.1332
                      CHANNELS 3 Zrotation Xrotation Yrotation
                      End Site
                      {
                        OFFSET 1.8737 -0.2304 -0.0886
                      }
                    }
                  }
                }
                JOINT LeftHandPinky1
                {
                  OFFSET 7.9094 -0.601089 -3.4825
                  CHANNELS 3 Zrotation Xrotation Yrotation
                  JOINT LeftHandPinky2
                  {
                    OFFSET 2.2874 -0.477005 -0.6314
                    CHANNELS 3 Zrotation Xrotation Yrotation
                    JOINT LeftHandPinky3
                    {
                      OFFSET 1.6774 -0.349396 -0.4633
                      CHANNELS 3 Zrotation Xrotation Yrotation
                      End Site
                      {
                        OFFSET 1.4888 -0.4091 -0.3416
                      }
                    }
                  }
                }
                JOINT LeftHandThumb1
                {
                  OFFSET 1.833 -1.3875 1.3896
                  CHANNELS 3 Zrotation Xrotation Yrotation
                  JOINT LeftHandThumb2
                  {
                    OFFSET 3.4129 -1.121 2.5732
                    CHANNELS 3 Zrotation Xrotation Yrotation
                    JOINT LeftHandThumb3
                    {
                      OFFSET 2.2474 -0.804199 1.6192
                      CHANNELS 3 Zrotation Xrotation Yrotation
                      End Site
                      {
                        OFFSET 1.6527 -0.5689 1.1317
                      }
                    }
                  }
                }
              }
            }
          }
        }
        JOINT RightShoulder
        {
          OFFSET -2.2086 21.1115 7.2329
          CHANNELS 3 Zrotation Xrotation Yrotation
          JOINT RightArm
          {
            OFFSET -13.1216 3.0287 -4.9007
            CHANNELS 3 Zrotation Xrotation Yrotation
            JOINT RightForeArm
            {
              OFFSET -27.4081 -0.0973053 -0.2375
              CHANNELS 3 Zrotation Xrotation Yrotation
              JOINT RightHand
              {
                OFFSET -22.8641 0.0664063 -0.1369
                CHANNELS 3 Zrotation Xrotation Yrotation
                JOINT RightHandIndex1
                {
                  OFFSET -8.8614 0.774994 2.4612
                  CHANNELS 3 Zrotation Xrotation Yrotation
                  JOINT RightHandIndex2
                  {
                    OFFSET -3.3146 -0.808304 0.5841
                    CHANNELS 3 Zrotation Xrotation Yrotation
                    JOINT RightHandIndex3
                    {
                      OFFSET -2.2628 -0.552002 0.3989
                      CHANNELS 3 Zrotation Xrotation Yrotation
                      End Site
                      {
                        OFFSET -1.6102 -0.4807 0.2612
                      }
                    }
                  }
                }
                JOINT RightHandMiddle1
                {
                  OFFSET -8.9937 0.894989 0.2143
                  CHANNELS 3 Zrotation Xrotation Yrotation
                  JOINT RightHandMiddle2
                  {
                    OFFSET -4.0984 0.0113983 -0.0242
                    CHANNELS 3 Zrotation Xrotation Yrotation
                    JOINT RightHandMiddle3
                    {
                      OFFSET -2.2716 0.00691223 -0.0138001
                      CHANNELS 3 Zrotation Xrotation Yrotation
                      End Site
                      {
                        OFFSET -2.0404 -0.1441 0.0027
                      }
                    }
                  }
                }
                JOINT RightHandRing1
                {
                  OFFSET -8.5234 0.597198 -2.0164
                  CHANNELS 3 Zrotation Xrotation Yrotation
                  JOINT RightHandRing2
                  {
                    OFFSET -3.7188 -0.188309 -0.2328
                    CHANNELS 3 Zrotation Xrotation Yrotation
                    JOINT RightHandRing3
                    {
                      OFFSET -2.1191 -0.106598 -0.1332
                      CHANNELS 3 Zrotation Xrotation Yrotation
                      End Site
                      {
                        OFFSET -1.8737 -0.2304 -0.0886
                      }
                    }
                  }
                }
                JOINT RightHandPinky1
                {
                  OFFSET -7.9094 -0.601105 -3.4825
                  CHANNELS 3 Zrotation Xrotation Yrotation
                  JOINT RightHandPinky2
                  {
                    OFFSET -2.2874 -0.477005 -0.6314
                    CHANNELS 3 Zrotation Xrotation Yrotation
                    JOINT RightHandPinky3
                    {
                      OFFSET -1.6774 -0.349396 -0.4633
                      CHANNELS 3 Zrotation Xrotation Yrotation
                      End Site
                      {
                        OFFSET -1.4888 -0.4091 -0.3416
                      }
                    }
                  }
                }
                JOINT RightHandThumb1
                {
                  OFFSET -1.833 -1.38751 1.3896
                  CHANNELS 3 Zrotation Xrotation Yrotation
                  JOINT RightHandThumb2
                  {
                    OFFSET -3.41299 -1.12099 2.5732
                    CHANNELS 3 Zrotation Xrotation Yrotation
                    JOINT RightHandThumb3
                    {
                      OFFSET -2.24741 -0.804108 1.6192
                      CHANNELS 3 Zrotation Xrotation Yrotation
                      End Site
                      {
                        OFFSET -1.6527 -0.5689 1.1317
                      }
                    }
                  }
                }
              }
            }
          }
        }
      }
    }
  }
  JOINT RightUpLeg
  {
    OFFSET -9.1966 3.8861 -0.7581
    CHANNELS 3 Zrotation Xrotation Yrotation
    JOINT RightLeg
    {
      OFFSET -0.7359 -41.0265 0
      CHANNELS 3 Zrotation Xrotation Yrotation
      JOINT RightFoot
      {
        OFFSET 0 -40.2855 0
        CHANNELS 3 Zrotation Xrotation Yrotation
        JOINT RightToeBase
        {
          OFFSET 0 -5.6122 11.7359
          CHANNELS 3 Zrotation Xrotation Yrotation
          End Site
          {
            OFFSET 0 0 7.8731
          }
        }
      }
    }
  }
  JOINT LeftUpLeg
  {
    OFFSET 9.1965 3.8864 -0.7581
    CHANNELS 3 Zrotation Xrotation Yrotation
    JOINT LeftLeg
    {
      OFFSET 0.7359 -41.0268 0
      CHANNELS 3 Zrotation Xrotation Yrotation
      JOINT LeftFoot
      {
        OFFSET 0 -40.2855 0
        CHANNELS 3 Zrotation Xrotation Yrotation
        JOINT LeftToeBase
        {
          OFFSET 0 -5.6122 11.7359
          CHANNELS 3 Zrotation Xrotation Yrotation
          End Site
          {
            OFFSET 0 0 7.8731
          }
        }
      }
    }
  }
}
MOTION
Frames:	5
Frame Time:	0.0333333
5.84602e-005 68.8428 3.50346 0 0 -0 0 0 -0 0 0 -0 0 0 -0 0 0 -0 0 0 -0 0 0 -0 0 0 -0 0 0 -0 0 0 -0 0 0 -0 0 0 -0 0 0 -0 0 0 -0 -0.0146107 -8.87603e-005 -2.63497e-007 2.99804e-018 -2.42657e-020 -1.42182e-022 0 0 -0 -0.0187562 -0.001176 5.858e-005 5.06224e-018 3.88251e-019 1.21329e-020 0 0 -0 -0.012269 -0.00324817 0.000675346 -1.74678e-018 3.88251e-019 -0 0 0 -0 0 0 -0 0 0 -0 0 0 -0 0 0 -0 0 0 -0 0 0 -0 0 0 -0 0 0 -0 0 0 -0 0 0 -0 0.0149955 -9.10982e-005 2.64101e-007 -9.69331e-018 1.21329e-020 -4.7394e-023 0 0 -0 0.0189956 -0.00119102 -5.96516e-005 -5.41541e-019 0 2.42657e-020 0 0 -0 0.0122698 -0.00324857 -0.000673756 -2.00796e-019 0 -1.94126e-019 0 0 -0 0 0 -0 0 0 -0 3.39842 1.33031 -0.0637918 -5.65207e-008 0.834868 -0.000436188 -3.39935 -2.16518 -0.0642563 -8.89002e-024 -1.18485e-023 -1.48106e-024 -3.39844 1.35642 0.0640283 -3.18788e-007 0.782166 -0.000588827 3.39931 -2.13858 0.0634662 1.1399e-023 0 -0 
1.64261 32.1101 -2.32856 0 28.9934 -0 -0.28531 1.63213 -0.608357 -0.553598 3.26717 -1.20931 -0.553598 3.26716 -1.20931 -1.67306e-006 -19.005 -2.13172e-005 4.96125e-007 0.358445 -3.41142e-007 -13.4097 -6.38119 -16.7875 -50.0014 -0.000751836 -26.0006 -30.0558 37.4714 -64.4334 58.4405 -3.96328 -8.02022 1.59028e-015 -4.37326e-015 -0 -1.70489e-006 1.78854e-006 1.91871e-006 1.59028e-015 4.96962e-015 -0 1.59028e-015 -4.37326e-015 -0 -0.0146119 -8.12126e-005 4.92234e-008 -3.18055e-015 -4.57205e-015 -1.59028e-015 1.59028e-015 -4.37326e-015 -0 -0.0187682 -0.00117665 6.44636e-005 -4.77083e-015 9.14409e-015 6.36111e-015 1.59028e-015 -4.37326e-015 -0 -0.0122838 -0.00325172 0.000685434 3.18055e-015 -5.96354e-016 -0 1.59028e-015 -4.37326e-015 -0 -1.70489e-006 1.78854e-006 1.91871e-006 1.59028e-015 4.96962e-015 -0 7.7102 -8.10455 17.1071 49.9992 -0.00274142 27.9974 30.0537 37.4681 64.4292 -48.4461 -3.96326 8.0173 -3.18055e-015 1.59028e-015 -3.18055e-015 1.94836e-006 1.73185e-006 -1.90534e-006 0 1.19271e-015 -0 -3.18055e-015 1.59028e-015 -3.18055e-015 0.0149791 -9.31106e-005 2.01121e-006 9.54166e-015 1.59028e-015 1.59028e-015 -3.18055e-015 1.59028e-015 -3.18055e-015 0.0190058 -0.00119259 -5.85472e-005 3.18055e-015 7.95139e-016 -3.18055e-015 -3.18055e-015 1.59028e-015 -3.18055e-015 0.0122294 -0.003233 -0.000672585 6.06912e-031 -2.18663e-014 1.59028e-015 -3.18055e-015 1.59028e-015 -3.18055e-015 1.94836e-006 1.73185e-006 -1.90534e-006 0 1.19271e-015 -0 -10.253 -34.8578 -20.1974 -169.94 79.3632 167.383 21.7339 49.6509 -29.8015 -5.56597e-015 -6.36111e-015 -1.59028e-015 10.0758 -34.7801 20.0081 170.528 79.4695 -167.905 -20.9356 48.5611 29.0948 3.25975e-006 -3.36998e-008 -6.10582e-007 
1.64261 32.1075 -1.99387 0 28.9934 -0 -0.286316 1.76526 -0.605796 -0.554327 3.53339 -1.20361 -0.554328 3.5334 -1.20361 2.78545e-006 -19.0047 -1.61607e-006 -5.77706e-007 0.431485 -3.50248e-007 -13.4097 -6.38124 -16.7875 -50.0568 0.00194183 -25.6676 -30.0558 37.4715 -64.4334 57.8959 -3.58762 -8.71888 1.59028e-015 -3.77691e-015 6.36111e-015 4.77083e-015 -4.57205e-015 1.59028e-015 3.18055e-015 -4.96962e-015 4.77083e-015 1.59028e-015 -3.77691e-015 6.36111e-015 -0.0146186 -9.09243e-005 -1.2204e-005 -3.18055e-015 -2.5842e-015 -0 1.59028e-015 -3.77691e-015 6.36111e-015 -0.0187516 -0.00117184 5.73545e-005 3.18055e-015 -9.93923e-016 1.59028e-015 1.59028e-015 -3.77691e-015 6.36111e-015 -0.0122779 -0.00326103 0.000672552 1.59028e-015 -3.18055e-015 -3.18055e-015 1.59028e-015 -3.77691e-015 6.36111e-015 4.77083e-015 -4.57205e-015 1.59028e-015 3.18055e-015 -4.96962e-015 4.77083e-015 8.05944 -8.02456 16.9263 50.0547 0.000483991 27.6089 30.0537 37.4681 64.4292 -48.1919 -3.71481 8.69211 6.36111e-015 -5.1684e-015 -0 -0 -6.36111e-015 -0 -3.18055e-015 -3.18055e-015 -1.59028e-015 6.36111e-015 -5.1684e-015 -0 0.0150096 -9.43144e-005 -2.91917e-006 -3.18055e-015 -3.57812e-015 3.18055e-015 6.36111e-015 -5.1684e-015 -0 0.0189978 -0.00119609 -5.98964e-005 -6.36111e-015 -2.78299e-015 1.59028e-015 6.36111e-015 -5.1684e-015 -0 0.0122621 -0.00324363 -0.000664719 1.27222e-014 -4.77083e-015 -1.59028e-015 6.36111e-015 -5.1684e-015 -0 -0 -6.36111e-015 -0 -3.18055e-015 -3.18055e-015 -1.59028e-015 -10.1817 -34.3942 -20.0842 -169.751 79.7847 167.22 21.7141 49.6506 -29.7766 3.27593e-007 3.26601e-007 1.19404e-006 10.0047 -34.3161 19.8935 170.368 79.8954 -167.77 -20.9166 48.5608 29.0704 2.38542e-015 -3.18055e-015 -1.59028e-015 
1.64261 32.1049 -1.65918 0 28.9934 -0 -0.287318 1.89841 -0.60321 -0.555068 3.79972 -1.19787 -0.555068 3.79974 -1.19787 -1.95703e-005 -19.0045 -2.53465e-005 -2.25399e-007 0.504512 5.11924e-007 -13.4097 -6.38118 -16.7875 -50.1123 0.00431537 -25.3345 -30.0558 37.4714 -64.4334 57.3555 -3.20495 -9.41441 6.62086e-032 1.19271e-015 -3.18055e-015 -3.18055e-015 0 -3.18055e-015 -1.59028e-015 -5.96354e-016 -3.18055e-015 6.62086e-032 1.19271e-015 -3.18055e-015 -0.0146033 -9.40574e-005 3.38832e-006 1.06607e-006 -4.60254e-007 -1.34076e-006 6.62086e-032 1.19271e-015 -3.18055e-015 -0.0187453 -0.00118034 6.20749e-005 1.59028e-015 7.95139e-016 -1.59028e-015 6.62086e-032 1.19271e-015 -3.18055e-015 -0.0122897 -0.00325281 0.000683327 1.59028e-015 1.78906e-015 -0 6.62086e-032 1.19271e-015 -3.18055e-015 -3.18055e-015 0 -3.18055e-015 -1.59028e-015 -5.96354e-016 -3.18055e-015 8.40891 -7.94554 16.745 50.1103 0.00329464 27.2203 30.0537 37.4681 64.4292 -47.9406 -3.46319 9.36608 -1.92656e-006 -1.74033e-006 1.92275e-006 -1.92656e-006 -1.74033e-006 1.92275e-006 -1.92656e-006 -1.74033e-006 1.92275e-006 -1.92656e-006 -1.74033e-006 1.92275e-006 0.0149988 -0.00010216 8.82745e-006 -1.9267e-006 -1.74007e-006 1.92298e-006 -1.92656e-006 -1.74033e-006 1.92275e-006 0.0190116 -0.00119488 -5.42858e-005 -1.92672e-006 -1.74e-006 1.92306e-006 -1.92656e-006 -1.74033e-006 1.92275e-006 0.0122761 -0.00324948 -0.000667074 -1.92661e-006 -1.7401e-006 1.923e-006 -1.92656e-006 -1.74033e-006 1.92275e-006 -1.92656e-006 -1.74033e-006 1.92275e-006 -1.92656e-006 -1.74033e-006 1.92275e-006 -10.1116 -33.9299 -19.9723 -169.546 80.2066 167.042 21.6944 49.6503 -29.7519 -2.18101e-007 -2.18079e-007 -7.96017e-007 9.93458 -33.8523 19.7803 170.196 80.321 -167.622 -20.8977 48.5604 29.0462 -5.66256e-008 5.45801e-008 -1.98405e-007 
1.6426 32.1022 -1.3245 0 28.9934 -0 -0.288327 2.03168 -0.600618 -0.555837 4.06625 -1.19212 -0.555837 4.06625 -1.19212 2.67908e-005 -19.005 1.56186e-005 -5.87986e-007 0.57755 -3.33999e-007 -13.4097 -6.38129 -16.7875 -50.1678 0.00637534 -25.0014 -30.0558 37.4714 -64.4334 56.8195 -2.81542 -10.1067 1.59028e-015 5.1684e-015 -3.18055e-015 1.59028e-015 3.97569e-015 -3.18055e-015 0 3.97569e-015 -0 1.59028e-015 5.1684e-015 -3.18055e-015 -0.0146267 -8.53474e-005 -2.46297e-006 0 0 -1.59028e-015 1.59028e-015 5.1684e-015 -3.18055e-015 -0.0187393 -0.00117341 6.36499e-005 1.59028e-015 -2.38542e-015 -4.77083e-015 1.59028e-015 5.1684e-015 -3.18055e-015 -0.0122829 -0.00325743 0.000674743 1.59028e-015 -4.77083e-015 -0 1.59028e-015 5.1684e-015 -3.18055e-015 1.59028e-015 3.97569e-015 -3.18055e-015 0 3.97569e-015 -0 8.75868 -7.86776 16.5633 50.1659 0.00576968 26.8317 30.0537 37.4681 64.4292 -47.6923 -3.20849 10.0392 1.9156e-006 1.74461e-006 -1.93134e-006 1.9156e-006 1.74461e-006 -1.93134e-006 1.9156e-006 1.74461e-006 -1.93134e-006 1.9156e-006 1.74461e-006 -1.93134e-006 0.0150023 -8.20826e-005 2.78696e-006 1.91575e-006 1.74436e-006 -1.93157e-006 1.9156e-006 1.74461e-006 -1.93134e-006 0.019025 -0.00119097 -6.829e-005 1.91577e-006 1.74428e-006 -1.93165e-006 1.9156e-006 1.74461e-006 -1.93134e-006 0.0122828 -0.00325075 -0.000677051 1.91566e-006 1.74439e-006 -1.93159e-006 1.9156e-006 1.74461e-006 -1.93134e-006 1.9156e-006 1.74461e-006 -1.93134e-006 1.9156e-006 1.74461e-006 -1.93134e-006 -10.0424 -33.466 -19.8617 -169.324 80.6279 166.846 21.6748 49.6499 -29.7272 -1.3613e-007 -1.36514e-007 -4.97505e-007 9.86563 -33.3885 19.6684 170.009 80.7463 -167.458 -20.879 48.56 29.0221 -2.82786e-007 2.73345e-007 -9.92005e-007 
